<?xml version="1.0" encoding="UTF-8"?>
<!DOCTYPE svg PUBLIC "-//W3C//DTD SVG 1.1//EN" "http://www.w3.org/Graphics/SVG/1.1/DTD/svg11.dtd">
<!-- Creator: CorelDRAW -->
<svg xmlns="http://www.w3.org/2000/svg" xml:space="preserve" width="7.9375mm" height="7.9374mm" version="1.1" style="shape-rendering:geometricPrecision; text-rendering:geometricPrecision; image-rendering:optimizeQuality; fill-rule:evenodd; clip-rule:evenodd"
viewBox="0 0 22.05 22.05"
 xmlns:xlink="http://www.w3.org/1999/xlink"
 xmlns:xodm="http://www.corel.com/coreldraw/odm/2003">
 <defs>
  <style type="text/css">
   <![CDATA[
    .fil1 {fill:white;fill-rule:nonzero}
    .fil0 {fill:url(#id0)}
   ]]>
  </style>
  <linearGradient id="id0" gradientUnits="userSpaceOnUse" x1="3.39" y1="18.66" x2="18.98" y2="3.07">
   <stop offset="0" style="stop-opacity:1; stop-color:#E17756"/>
   <stop offset="1" style="stop-opacity:1; stop-color:#D92A7A"/>
  </linearGradient>
 </defs>
 <g id="Слой_x0020_1">
  <metadata id="CorelCorpID_0Corel-Layer"/>
  <g id="_2339169194400">
   <path class="fil0" d="M22.05 11.02c0,6.09 -4.94,11.02 -11.02,11.02 -6.09,0 -11.02,-4.94 -11.02,-11.02 0,-6.09 4.94,-11.02 11.02,-11.02 6.09,0 11.02,4.94 11.02,11.02z"/>
   <path class="fil1" d="M11.02 4.08c-1.89,0 -2.12,0.01 -2.86,0.04 -0.74,0.03 -1.24,0.15 -1.69,0.32 -0.46,0.18 -0.84,0.41 -1.23,0.8 -0.39,0.39 -0.62,0.77 -0.8,1.23 -0.17,0.44 -0.29,0.95 -0.32,1.68 -0.03,0.74 -0.04,0.98 -0.04,2.86 0,1.89 0.01,2.12 0.04,2.86 0.03,0.74 0.15,1.24 0.32,1.68 0.18,0.46 0.41,0.84 0.8,1.23 0.39,0.39 0.77,0.62 1.23,0.8 0.44,0.17 0.95,0.29 1.69,0.32 0.74,0.03 0.98,0.04 2.86,0.04 1.89,0 2.12,-0.01 2.86,-0.04 0.74,-0.03 1.24,-0.15 1.69,-0.32 0.46,-0.18 0.84,-0.42 1.23,-0.8 0.39,-0.39 0.62,-0.77 0.8,-1.23 0.17,-0.44 0.29,-0.95 0.32,-1.68 0.03,-0.74 0.04,-0.98 0.04,-2.86 0,-1.89 -0.01,-2.12 -0.04,-2.86 -0.03,-0.74 -0.15,-1.24 -0.32,-1.68 -0.18,-0.46 -0.41,-0.84 -0.8,-1.23 -0.39,-0.39 -0.77,-0.62 -1.23,-0.8 -0.44,-0.17 -0.95,-0.29 -1.69,-0.32 -0.74,-0.03 -0.98,-0.04 -2.86,-0.04zm0 1.25c1.85,0 2.07,0.01 2.81,0.04 0.68,0.03 1.04,0.14 1.29,0.24 0.32,0.13 0.56,0.28 0.8,0.52 0.24,0.24 0.39,0.47 0.52,0.8 0.1,0.24 0.21,0.61 0.24,1.29 0.03,0.73 0.04,0.95 0.04,2.8 0,1.85 -0.01,2.07 -0.04,2.81 -0.03,0.68 -0.14,1.04 -0.24,1.29 -0.13,0.32 -0.28,0.56 -0.52,0.8 -0.24,0.24 -0.47,0.39 -0.8,0.52 -0.24,0.1 -0.61,0.21 -1.29,0.24 -0.73,0.03 -0.95,0.04 -2.81,0.04 -1.85,0 -2.07,-0.01 -2.8,-0.04 -0.68,-0.03 -1.04,-0.14 -1.29,-0.24 -0.32,-0.13 -0.56,-0.28 -0.8,-0.52 -0.24,-0.24 -0.39,-0.47 -0.52,-0.8 -0.1,-0.24 -0.21,-0.61 -0.24,-1.29 -0.03,-0.73 -0.04,-0.95 -0.04,-2.81 0,-1.85 0.01,-2.07 0.04,-2.8 0.03,-0.68 0.14,-1.04 0.24,-1.29 0.13,-0.32 0.28,-0.56 0.52,-0.8 0.24,-0.24 0.47,-0.39 0.8,-0.52 0.24,-0.1 0.61,-0.21 1.29,-0.24 0.73,-0.03 0.95,-0.04 2.8,-0.04z"/>
   <path class="fil1" d="M11.02 13.34c-1.28,0 -2.31,-1.04 -2.31,-2.31 0,-1.28 1.04,-2.31 2.31,-2.31 1.28,0 2.31,1.04 2.31,2.31 0,1.28 -1.04,2.31 -2.31,2.31zm0 -5.88c-1.97,0 -3.56,1.6 -3.56,3.56 0,1.97 1.6,3.56 3.56,3.56 1.97,0 3.56,-1.6 3.56,-3.56 0,-1.97 -1.6,-3.56 -3.56,-3.56z"/>
   <path class="fil1" d="M15.56 7.32c0,0.46 -0.37,0.83 -0.83,0.83 -0.46,0 -0.83,-0.37 -0.83,-0.83 0,-0.46 0.37,-0.83 0.83,-0.83 0.46,0 0.83,0.37 0.83,0.83z"/>
  </g>
 </g>
</svg>
