<?xml version="1.0" encoding="UTF-8"?>
<!DOCTYPE svg PUBLIC "-//W3C//DTD SVG 1.1//EN" "http://www.w3.org/Graphics/SVG/1.1/DTD/svg11.dtd">
<!-- Creator: CorelDRAW -->
<svg xmlns="http://www.w3.org/2000/svg" xml:space="preserve" width="6.8792mm" height="6.8791mm" version="1.1" style="shape-rendering:geometricPrecision; text-rendering:geometricPrecision; image-rendering:optimizeQuality; fill-rule:evenodd; clip-rule:evenodd"
viewBox="0 0 47.57 47.57"
 xmlns:xlink="http://www.w3.org/1999/xlink"
 xmlns:xodm="http://www.corel.com/coreldraw/odm/2003">
 <defs>
  <style type="text/css">
   <![CDATA[
    .fil0 {fill:#648D00}
    .fil1 {fill:white;fill-rule:nonzero}
   ]]>
  </style>
 </defs>
 <g id="Слой_x0020_1">
  <metadata id="CorelCorpID_0Corel-Layer"/>
  <path class="fil0" d="M47.57 23.78c0,13.14 -10.65,23.78 -23.78,23.78 -13.14,0 -23.78,-10.65 -23.78,-23.78 0,-13.14 10.65,-23.78 23.78,-23.78 13.14,0 23.78,10.65 23.78,23.78z"/>
  <g id="_2340058224448">
   <path class="fil1" d="M23.78 7.74c-6.22,0 -11.28,5.06 -11.28,11.28 0,2.1 0.58,4.15 1.68,5.93l8.95 14.43c0.17,0.28 0.47,0.44 0.8,0.44 0,0 0,0 0.01,0 0.33,-0 0.63,-0.18 0.8,-0.46l8.73 -14.57c1.04,-1.74 1.59,-3.74 1.59,-5.78 0,-6.22 -5.06,-11.28 -11.28,-11.28zm8.08 16.09l0 0 -7.93 13.25 -8.14 -13.12c-0.92,-1.48 -1.41,-3.19 -1.41,-4.94 0,-5.18 4.23,-9.41 9.41,-9.41 5.18,0 9.41,4.23 9.41,9.41 0,1.7 -0.46,3.36 -1.33,4.81z"/>
   <path class="fil1" d="M23.78 13.38c-3.11,0 -5.64,2.53 -5.64,5.64 0,3.09 2.49,5.64 5.64,5.64 3.19,0 5.64,-2.58 5.64,-5.64 0,-3.11 -2.53,-5.64 -5.64,-5.64zm0 9.41l0 0c-2.08,0 -3.77,-1.69 -3.77,-3.77 0,-2.07 1.7,-3.77 3.77,-3.77 2.07,0 3.77,1.7 3.77,3.77 0,2.05 -1.65,3.77 -3.77,3.77z"/>
  </g>
 </g>
</svg>
