<?xml version="1.0" encoding="UTF-8"?>
<!DOCTYPE svg PUBLIC "-//W3C//DTD SVG 1.1//EN" "http://www.w3.org/Graphics/SVG/1.1/DTD/svg11.dtd">
<!-- Creator: CorelDRAW -->
<svg xmlns="http://www.w3.org/2000/svg" xml:space="preserve" width="6.8792mm" height="6.8791mm" version="1.1" style="shape-rendering:geometricPrecision; text-rendering:geometricPrecision; image-rendering:optimizeQuality; fill-rule:evenodd; clip-rule:evenodd"
viewBox="0 0 47.57 47.57"
 xmlns:xlink="http://www.w3.org/1999/xlink"
 xmlns:xodm="http://www.corel.com/coreldraw/odm/2003">
 <defs>
  <style type="text/css">
   <![CDATA[
    .fil0 {fill:#648D00}
    .fil1 {fill:white;fill-rule:nonzero}
   ]]>
  </style>
 </defs>
 <g id="Слой_x0020_1">
  <metadata id="CorelCorpID_0Corel-Layer"/>
  <path class="fil0" d="M47.57 23.78c0,13.14 -10.65,23.78 -23.78,23.78 -13.14,0 -23.78,-10.65 -23.78,-23.78 0,-13.14 10.65,-23.78 23.78,-23.78 13.14,0 23.78,10.65 23.78,23.78z"/>
  <g id="_2340059698256">
   <path class="fil1" d="M20.4 23.63c1.86,1.19 4.14,1.32 6.26,0.34 0.45,-0.21 0.65,-0.74 0.44,-1.19 -0.21,-0.45 -0.74,-0.65 -1.19,-0.44 -1.55,0.71 -3.2,0.63 -4.54,-0.22 -1.3,-0.83 -2.08,-2.25 -2.08,-3.79 0,-2.48 2.02,-4.49 4.49,-4.49 2.48,0 4.49,2.02 4.49,4.49 0,0.5 -0.4,0.9 -0.9,0.9 -0.45,0 -0.88,-0.34 -0.9,-0.88 0,-0 0,-0.01 0,-0.01 0,-1.49 -1.21,-2.7 -2.7,-2.7 -1.49,0 -2.7,1.21 -2.7,2.7 0,1.49 1.21,2.7 2.7,2.7 0.69,0 1.32,-0.26 1.8,-0.69 0.48,0.43 1.11,0.69 1.8,0.69 1.49,0 2.7,-1.21 2.7,-2.7 0,-3.47 -2.82,-6.29 -6.29,-6.29 -3.47,0 -6.29,2.82 -6.29,6.29 0,2.15 1.09,4.14 2.9,5.3zm3.39 -4.4l0 0c-0.5,0 -0.9,-0.4 -0.9,-0.9 0,-0.5 0.4,-0.9 0.9,-0.9 0.46,0 0.84,0.35 0.89,0.8 -0.01,0.08 -0.02,0.16 -0.01,0.25 -0.07,0.43 -0.44,0.75 -0.89,0.75z"/>
   <path class="fil1" d="M37.27 20.25c-0,-0.23 -0.09,-0.46 -0.26,-0.63l-3.33 -3.33 0 -6.94c0,-0.5 -0.4,-0.9 -0.9,-0.9l-17.97 0c-0.5,0 -0.9,0.4 -0.9,0.9l0 6.94 -3.33 3.33c-0,0 -0.01,0.01 -0.01,0.01 -0.17,0.17 -0.25,0.4 -0.25,0.62 0,0 0,0 0,0l0 16.18c0,1.49 1.21,2.7 2.7,2.7l21.57 0c1.49,0 2.7,-1.21 2.7,-2.7l0 -16.18c0,-0 0,-0 0,-0zm-2.17 0l0 0 -1.43 1.43 0 -2.85 1.43 1.43zm-3.22 -10.01l0 0 0 6.41c0,0 0,0 0,0l0 6.82 -4.87 4.87 -6.45 0 -4.87 -4.87 0 -6.82c0,0 0,-0 0,-0l0 -6.41 16.18 0zm-17.97 11.43l0 0 -1.43 -1.43 1.43 -1.43 0 2.85zm-1.8 14.38l0 0 0 -13.63 6.82 6.82 -6.82 6.82zm1.27 1.27l0 0 7.19 -7.19 6.45 0 7.19 7.19 -20.82 0zm22.1 -1.27l0 0 -6.82 -6.82 6.82 -6.82 0 13.63z"/>
  </g>
 </g>
</svg>
