<?xml version="1.0" encoding="UTF-8"?>
<!DOCTYPE svg PUBLIC "-//W3C//DTD SVG 1.1//EN" "http://www.w3.org/Graphics/SVG/1.1/DTD/svg11.dtd">
<!-- Creator: CorelDRAW -->
<svg xmlns="http://www.w3.org/2000/svg" xml:space="preserve" width="6.8792mm" height="6.8791mm" version="1.1" style="shape-rendering:geometricPrecision; text-rendering:geometricPrecision; image-rendering:optimizeQuality; fill-rule:evenodd; clip-rule:evenodd"
viewBox="0 0 47.57 47.57"
 xmlns:xlink="http://www.w3.org/1999/xlink"
 xmlns:xodm="http://www.corel.com/coreldraw/odm/2003">
 <defs>
  <style type="text/css">
   <![CDATA[
    .fil0 {fill:#648D00}
    .fil1 {fill:white;fill-rule:nonzero}
   ]]>
  </style>
 </defs>
 <g id="Слой_x0020_1">
  <metadata id="CorelCorpID_0Corel-Layer"/>
  <path class="fil0" d="M47.57 23.78c0,13.14 -10.65,23.78 -23.78,23.78 -13.14,0 -23.78,-10.65 -23.78,-23.78 0,-13.14 10.65,-23.78 23.78,-23.78 13.14,0 23.78,10.65 23.78,23.78z"/>
  <path class="fil1" d="M36.98 30.39l-3.46 -3.46c-0.95,-0.95 -2.5,-0.95 -3.46,0l-1.57 1.57c-0.72,0.72 -1.9,0.72 -2.62,0l-6.81 -6.82c-0.72,-0.72 -0.72,-1.9 0,-2.62 0.25,-0.25 0.98,-0.98 1.57,-1.57 0.95,-0.95 0.96,-2.5 -0,-3.46l-3.46 -3.45c-0.95,-0.95 -2.5,-0.95 -3.46,-0 -0.71,0.71 -0.94,0.93 -1.26,1.25 -3.44,3.44 -3.44,9.03 -0,12.47l10.79 10.8c3.45,3.45 9.02,3.45 12.47,0l1.26 -1.26c0.95,-0.95 0.95,-2.5 0,-3.46zm-4.61 -2.31l0 0 3.46 3.46c0.32,0.32 0.32,0.83 0,1.15l-0.58 0.58 -4.61 -4.61 0.58 -0.58c0.32,-0.32 0.83,-0.32 1.15,0zm-16.35 -16.34l0 0 3.46 3.45c0.32,0.32 0.32,0.83 0,1.15l-0.58 0.58 -4.61 -4.61 0.57 -0.57c0.32,-0.32 0.83,-0.32 1.15,0zm8.38 22.21l0 0 -10.79 -10.8c-2.66,-2.66 -2.81,-6.84 -0.45,-9.67l4.59 4.59c-1.21,1.37 -1.16,3.45 0.15,4.76l6.81 6.82c0,0 0,0 0,0 1.31,1.31 3.39,1.36 4.76,0.15l4.59 4.59c-2.83,2.35 -6.99,2.23 -9.67,-0.45z"/>
 </g>
</svg>
