<?xml version="1.0" encoding="UTF-8"?>
<!DOCTYPE svg PUBLIC "-//W3C//DTD SVG 1.1//EN" "http://www.w3.org/Graphics/SVG/1.1/DTD/svg11.dtd">
<!-- Creator: CorelDRAW -->
<svg xmlns="http://www.w3.org/2000/svg" xml:space="preserve" width="7.9376mm" height="7.9376mm" version="1.1" style="shape-rendering:geometricPrecision; text-rendering:geometricPrecision; image-rendering:optimizeQuality; fill-rule:evenodd; clip-rule:evenodd"
viewBox="0 0 24.24 24.24"
 xmlns:xlink="http://www.w3.org/1999/xlink"
 xmlns:xodm="http://www.corel.com/coreldraw/odm/2003">
 <defs>
  <style type="text/css">
   <![CDATA[
    .fil0 {fill:#010201;fill-rule:nonzero}
    .fil3 {fill:#6ABAC5;fill-rule:nonzero}
    .fil2 {fill:#CB1C54;fill-rule:nonzero}
    .fil1 {fill:white;fill-rule:nonzero}
   ]]>
  </style>
 </defs>
 <g id="Слой_x0020_1">
  <metadata id="CorelCorpID_0Corel-Layer"/>
  <g id="_2339169520240">
   <path class="fil0" d="M24.24 12.12c0,6.69 -5.43,12.12 -12.12,12.12 -6.69,0 -12.12,-5.43 -12.12,-12.12 0,-6.69 5.43,-12.12 12.12,-12.12 6.69,0 12.12,5.43 12.12,12.12z"/>
   <path class="fil1" d="M8.89 16.98l0.04 0.04c0.13,0.1 0.23,0.23 0.36,0.33 0.4,0.32 0.85,0.49 1.36,0.53 1.22,0.08 2.28,-0.84 2.42,-2.05 0.01,-0.06 0,-0.12 0,-0.18 0,-3.63 0,-7.25 0,-10.88 0,-0.24 0,-0.24 0.24,-0.24 0.55,0 1.1,-0 1.65,0 0.05,0 0.11,-0.01 0.15,0.02l0.01 0.01c0.03,0.03 0.03,0.06 0.04,0.1 0.21,0.98 0.73,1.76 1.53,2.35 0.05,0.04 0.09,0.08 0.14,0.12 0.04,0.03 0.07,0.06 0.11,0.09 0.13,0.07 0.22,0.19 0.34,0.29 0.45,0.37 0.95,0.63 1.51,0.77 0.05,0.01 0.11,0.01 0.14,0.06l0.01 0.01c0.03,0.03 0.03,0.08 0.03,0.12 0,0.64 0,1.28 0,1.92 0,0.15 -0.02,0.15 -0.17,0.15 -0.47,0 -0.93,-0.06 -1.38,-0.17 -0.78,-0.18 -1.5,-0.5 -2.17,-0.94 -0.04,-0.02 -0.07,-0.07 -0.11,-0.06 -0.05,0.02 -0.02,0.08 -0.02,0.13 -0,1.8 0.01,3.6 -0,5.4 -0.01,1.26 -0.41,2.38 -1.23,3.34 -0.87,1.02 -1.99,1.61 -3.32,1.77 -1.03,0.13 -2,-0.06 -2.93,-0.52 -0.15,-0.07 -0.29,-0.16 -0.43,-0.26 -0.04,-0.04 -0.08,-0.07 -0.13,-0.11 -0.32,-0.26 -0.54,-0.6 -0.75,-0.95 -0.32,-0.54 -0.53,-1.12 -0.63,-1.74 -0.06,-0.35 -0.09,-0.71 -0.07,-1.07 0.06,-1.15 0.45,-2.18 1.19,-3.07 0.62,-0.75 1.4,-1.27 2.32,-1.58 0.38,-0.13 0.78,-0.21 1.18,-0.24 0.08,-0.01 0.15,-0.02 0.23,-0.02 0.04,0 0.07,-0 0.1,0.02l0.01 0.01c0.02,0.04 0.02,0.08 0.02,0.12 0,0.65 0,1.3 0,1.95 0,0.02 -0,0.05 -0,0.07 -0,0.07 -0.04,0.09 -0.1,0.07 -0.18,-0.05 -0.36,-0.07 -0.54,-0.08 -0.28,-0.02 -0.56,0.03 -0.83,0.12 -0.89,0.33 -1.43,0.97 -1.55,1.91 -0.11,0.93 0.25,1.67 1.03,2.2 0.06,0.04 0.13,0.09 0.19,0.14z"/>
   <path class="fil2" d="M7.21 19.25c0.03,-0.01 0.05,0.02 0.08,0.03 0.58,0.35 1.21,0.58 1.88,0.69 0.34,0.05 0.68,0.08 1.02,0.06 1.14,-0.06 2.16,-0.44 3.04,-1.17 0.85,-0.7 1.41,-1.59 1.7,-2.65 0.09,-0.34 0.14,-0.68 0.16,-1.03 0.01,-0.2 0.01,-0.4 0.01,-0.6 0,-1.72 0,-3.43 0,-5.14 0,-0.04 0,-0.08 0,-0.12 0.04,-0.01 0.06,0.02 0.09,0.04 0.61,0.42 1.27,0.73 1.99,0.92 0.39,0.11 0.79,0.18 1.2,0.22 0.17,0.01 0.34,0.01 0.51,0.03 0.07,0.01 0.08,0 0.08,-0.08 0,-0.08 0,-0.16 0,-0.25 0,-0.58 0,-1.16 0,-1.74 0,-0.04 0,-0.07 0,-0.11 0.15,0.02 0.3,0.05 0.46,0.06 0.09,0.01 0.19,0.02 0.28,0.01 0.05,-0 0.07,0.01 0.06,0.06 -0,0.02 -0,0.04 -0,0.06 0,0.84 0,1.68 0,2.52 0,0.02 0,0.03 -0,0.05 -0,0.07 -0,0.07 -0.08,0.07 -0.26,-0 -0.52,-0.02 -0.78,-0.05 -0.53,-0.07 -1.05,-0.2 -1.55,-0.4 -0.48,-0.19 -0.93,-0.42 -1.35,-0.72 -0.03,-0.02 -0.05,-0.03 -0.09,-0.06 0,0.05 0,0.08 0,0.12 0,1.83 0,3.67 -0,5.5 -0,0.98 -0.25,1.88 -0.78,2.71 -0.63,1 -1.5,1.7 -2.61,2.11 -0.67,0.24 -1.37,0.34 -2.09,0.29 -1.21,-0.09 -2.25,-0.55 -3.14,-1.37 -0.02,-0.02 -0.04,-0.05 -0.07,-0.07z"/>
   <path class="fil3" d="M15.12 4.56c-0.04,0 -0.07,0 -0.11,0 -0.59,0 -1.18,0 -1.77,0 -0.14,0 -0.14,0 -0.14,0.13 0,3.61 -0,7.21 0,10.82 0,0.25 -0.02,0.5 -0.1,0.74 -0.28,0.84 -0.84,1.4 -1.71,1.6 -0.93,0.21 -1.72,-0.07 -2.34,-0.79l-0.03 -0.04c0.18,0.07 0.36,0.14 0.55,0.18 0.6,0.12 1.18,0.03 1.7,-0.3 0.61,-0.37 0.96,-0.92 1.09,-1.62 0.02,-0.13 0.03,-0.27 0.03,-0.4 -0,-3.61 -0,-7.23 -0,-10.84 0,-0.17 -0.02,-0.15 0.14,-0.15 0.83,-0 1.67,-0 2.5,-0 0.02,0 0.04,-0 0.06,0 0.09,0 0.09,0 0.09,0.09 -0,0.19 -0,0.39 0.03,0.58z"/>
   <path class="fil3" d="M10.66 10.49c-0.51,0.02 -1.01,0.1 -1.49,0.26 -0.7,0.23 -1.32,0.6 -1.86,1.1 -0.71,0.66 -1.2,1.45 -1.46,2.38 -0.09,0.33 -0.15,0.67 -0.17,1.01 -0.01,0.21 -0.02,0.41 -0.01,0.62 0.03,0.57 0.15,1.13 0.37,1.66 0.24,0.59 0.58,1.13 1.03,1.59l0.02 0.03c-0.1,-0.04 -0.18,-0.12 -0.27,-0.18 -0.83,-0.66 -1.41,-1.48 -1.73,-2.49 -0.11,-0.35 -0.18,-0.71 -0.21,-1.08 -0.02,-0.27 -0.03,-0.53 -0.01,-0.8 0.04,-0.61 0.18,-1.2 0.44,-1.75 0.26,-0.58 0.62,-1.1 1.08,-1.55 0.53,-0.52 1.15,-0.91 1.85,-1.16 0.44,-0.16 0.89,-0.25 1.36,-0.29 0.34,-0.02 0.67,-0.02 1.01,0.02 0.05,0.01 0.07,0.01 0.07,0.07 -0,0.19 -0,0.37 -0,0.56z"/>
   <path class="fil2" d="M8.89 16.98c-0.21,-0.09 -0.38,-0.23 -0.54,-0.38 -0.4,-0.39 -0.64,-0.86 -0.71,-1.42 -0.13,-1.17 0.61,-2.18 1.63,-2.49 0.44,-0.13 0.88,-0.14 1.32,-0.02 0.02,0.01 0.05,0.02 0.08,0.01 0.01,-0.04 0.01,-0.07 0.01,-0.11 0,-0.66 0,-1.31 0,-1.97 0,-0.04 0,-0.07 0.01,-0.11 0.25,-0.02 0.5,0.01 0.76,0.03 0.04,0 0.05,0.02 0.05,0.06 -0,0.02 0,0.04 0,0.06 0,0.87 0,1.74 -0,2.61 -0,0.03 0.01,0.07 -0.01,0.1 -0.11,-0.02 -0.23,-0.06 -0.34,-0.07 -0.67,-0.09 -1.28,0.06 -1.81,0.48 -0.47,0.37 -0.75,0.85 -0.85,1.44 -0.1,0.62 0.03,1.2 0.38,1.72 0.01,0.02 0.03,0.04 0.04,0.07z"/>
   <path class="fil2" d="M16.84 7.14c-0.25,-0.15 -0.47,-0.34 -0.68,-0.55 -0.55,-0.56 -0.89,-1.23 -1.04,-2l-0 -0.02c0.24,-0.01 0.47,-0 0.71,-0.01 0.04,-0 0.06,0.02 0.06,0.06 -0,0.02 0,0.03 0,0.05 -0.01,0.66 0.18,1.26 0.51,1.83 0.11,0.2 0.25,0.39 0.4,0.57 0.02,0.02 0.04,0.03 0.04,0.06z"/>
   <path class="fil3" d="M18.94 8.34c-0.67,-0.14 -1.26,-0.45 -1.78,-0.9 -0.08,-0.07 -0.15,-0.13 -0.21,-0.22 0.02,-0 0.04,0.01 0.06,0.02 0.41,0.23 0.84,0.39 1.3,0.46 0.18,0.03 0.36,0.05 0.55,0.05 0.08,-0 0.08,0 0.08,0.08 -0,0.17 -0,0.34 -0,0.51z"/>
  </g>
 </g>
</svg>
