<?xml version="1.0" encoding="UTF-8"?>
<!DOCTYPE svg PUBLIC "-//W3C//DTD SVG 1.1//EN" "http://www.w3.org/Graphics/SVG/1.1/DTD/svg11.dtd">
<!-- Creator: CorelDRAW -->
<svg xmlns="http://www.w3.org/2000/svg" xml:space="preserve" width="6.8792mm" height="6.8791mm" version="1.1" style="shape-rendering:geometricPrecision; text-rendering:geometricPrecision; image-rendering:optimizeQuality; fill-rule:evenodd; clip-rule:evenodd"
viewBox="0 0 47.57 47.57"
 xmlns:xlink="http://www.w3.org/1999/xlink"
 xmlns:xodm="http://www.corel.com/coreldraw/odm/2003">
 <defs>
  <style type="text/css">
   <![CDATA[
    .fil1 {fill:white}
    .fil0 {fill:url(#id0)}
   ]]>
  </style>
  <linearGradient id="id0" gradientUnits="userSpaceOnUse" x1="23.78" y1="44.11" x2="23.78" y2="-3.46">
   <stop offset="0" style="stop-opacity:1; stop-color:#78CD51"/>
   <stop offset="1" style="stop-opacity:1; stop-color:#A0FC84"/>
  </linearGradient>
 </defs>
 <g id="Слой_x0020_1">
  <metadata id="CorelCorpID_0Corel-Layer"/>
  <g id="_2340058261408">
   <path class="fil0" d="M47.57 23.78c0,13.14 -10.65,23.78 -23.78,23.78 -13.14,0 -23.78,-10.65 -23.78,-23.78 0,-13.14 10.65,-23.78 23.78,-23.78 13.14,0 23.78,10.65 23.78,23.78z"/>
   <path class="fil1" d="M31.43 26.45c-0.38,-0.19 -2.23,-1.1 -2.58,-1.23 -0.35,-0.13 -0.6,-0.19 -0.85,0.19 -0.25,0.38 -0.97,1.23 -1.19,1.48 -0.22,0.25 -0.44,0.28 -0.82,0.09 -0.38,-0.19 -1.59,-0.59 -3.03,-1.87 -1.12,-1 -1.88,-2.23 -2.1,-2.61 -0.22,-0.38 -0.02,-0.58 0.16,-0.77 0.17,-0.17 0.38,-0.44 0.57,-0.66 0.19,-0.22 0.25,-0.38 0.38,-0.63 0.13,-0.25 0.06,-0.47 -0.03,-0.66 -0.09,-0.19 -0.85,-2.04 -1.16,-2.8 -0.31,-0.73 -0.62,-0.64 -0.85,-0.65 -0.22,-0.01 -0.47,-0.01 -0.72,-0.01 -0.25,0 -0.66,0.09 -1.01,0.47 -0.35,0.38 -1.32,1.29 -1.32,3.14 0,1.86 1.35,3.65 1.54,3.9 0.19,0.25 2.66,4.06 6.44,5.69 0.9,0.39 1.6,0.62 2.15,0.79 0.9,0.29 1.73,0.25 2.37,0.15 0.72,-0.11 2.23,-0.91 2.54,-1.79 0.31,-0.88 0.31,-1.63 0.22,-1.79 -0.09,-0.16 -0.35,-0.25 -0.72,-0.44zm-6.88 9.39l-0.01 0c-2.25,-0 -4.46,-0.61 -6.38,-1.75l-0.46 -0.27 -4.75 1.24 1.27 -4.63 -0.3 -0.47c-1.26,-2 -1.92,-4.3 -1.92,-6.67 0,-6.91 5.63,-12.54 12.55,-12.54 3.35,0 6.5,1.31 8.87,3.68 2.37,2.37 3.67,5.52 3.67,8.87 -0,6.91 -5.63,12.54 -12.54,12.54zm10.67 -23.21c-2.85,-2.85 -6.64,-4.42 -10.67,-4.42 -8.32,0 -15.09,6.77 -15.09,15.08 -0,2.66 0.69,5.25 2.01,7.54l-2.14 7.82 8 -2.1c2.2,1.2 4.68,1.83 7.21,1.84l0.01 0c8.32,0 15.08,-6.77 15.09,-15.08 0,-4.03 -1.57,-7.82 -4.41,-10.67z"/>
  </g>
 </g>
</svg>
