<?xml version="1.0" encoding="UTF-8"?>
<!DOCTYPE svg PUBLIC "-//W3C//DTD SVG 1.1//EN" "http://www.w3.org/Graphics/SVG/1.1/DTD/svg11.dtd">
<!-- Creator: CorelDRAW -->
<svg xmlns="http://www.w3.org/2000/svg" xml:space="preserve" width="46.8895mm" height="9.512mm" version="1.1" style="shape-rendering:geometricPrecision; text-rendering:geometricPrecision; image-rendering:optimizeQuality; fill-rule:evenodd; clip-rule:evenodd"
viewBox="0 0 443.59 89.99"
 xmlns:xlink="http://www.w3.org/1999/xlink"
 xmlns:xodm="http://www.corel.com/coreldraw/odm/2003">
 <defs>
  <style type="text/css">
   <![CDATA[
    .fil0 {fill:#648D00;fill-rule:nonzero}
    .fil1 {fill:#F18500;fill-rule:nonzero}
   ]]>
  </style>
 </defs>
 <g id="Слой_x0020_1">
  <metadata id="CorelCorpID_0Corel-Layer"/>
  <path class="fil0" d="M92.08 70.08c-0.61,-1.18 -1.04,-2.65 -1.32,-4.41 -3.19,3.57 -7.35,5.34 -12.46,5.34 -4.83,0 -8.85,-1.4 -12.02,-4.21 -3.18,-2.8 -4.77,-6.34 -4.77,-10.61 0,-5.23 1.95,-9.25 5.82,-12.05 3.88,-2.8 9.48,-4.22 16.8,-4.25l6.07 0 0 -2.8c0,-2.27 -0.59,-4.08 -1.76,-5.43 -1.17,-1.35 -3.02,-2.04 -5.54,-2.04 -2.21,0 -3.96,0.53 -5.22,1.57 -1.26,1.04 -1.9,2.49 -1.9,4.31l-13.18 0c0,-2.85 0.87,-5.5 2.63,-7.91 1.78,-2.43 4.27,-4.33 7.49,-5.71 3.22,-1.39 6.84,-2.07 10.85,-2.07 6.09,0 10.92,1.53 14.48,4.58 3.58,3.07 5.37,7.35 5.37,12.9l0 21.4c0.03,4.67 0.68,8.22 1.96,10.62l0 0.78 -13.33 0zm-10.9 -9.16c1.95,0 3.74,-0.44 5.39,-1.29 1.64,-0.87 2.85,-2.04 3.64,-3.49l0 -8.49 -4.92 0c-6.6,0 -10.12,2.27 -10.54,6.84l-0.05 0.78c0,1.64 0.58,2.99 1.73,4.07 1.15,1.06 2.74,1.59 4.75,1.59zm60.15 -27.86c-1.79,-0.23 -3.36,-0.36 -4.73,-0.36 -5,0 -8.27,1.68 -9.81,5.06l0 32.32 -13.19 0 0 -49.34 12.46 0 0.36 5.86c2.65,-4.53 6.32,-6.79 11,-6.79 1.46,0 2.83,0.2 4.11,0.59l-0.19 12.66zm35.91 32.02c-3.26,3.96 -7.76,5.93 -13.5,5.93 -5.29,0 -9.33,-1.53 -12.12,-4.56 -2.79,-3.04 -4.21,-7.49 -4.27,-13.36l0 -32.35 13.19 0 0 31.91c0,5.14 2.34,7.71 7.02,7.71 4.47,0 7.54,-1.56 9.22,-4.66l0 -34.96 13.22 0 0 49.34 -12.41 0 -0.36 -5zm36.66 -44.34l0 52.02c0,5.43 -1.45,9.67 -4.33,12.69 -2.9,3.02 -7.06,4.53 -12.51,4.53 -2.27,0 -4.45,-0.26 -6.53,-0.78l0 -10.47c1.59,0.26 2.98,0.4 4.16,0.4 3.99,0 5.98,-2.12 5.98,-6.34l0 -52.06 13.22 0zm-14.28 -12.74c0,-1.96 0.67,-3.6 1.99,-4.87 1.32,-1.28 3.12,-1.92 5.4,-1.92 2.27,0 4.08,0.64 5.4,1.92 1.32,1.28 1.98,2.91 1.98,4.87 0,2.01 -0.67,3.66 -2.02,4.94 -1.35,1.28 -3.15,1.92 -5.36,1.92 -2.23,0 -4,-0.64 -5.36,-1.92 -1.36,-1.28 -2.04,-2.93 -2.04,-4.94zm42.53 42.28l-4.75 4.75 0 15.04 -13.19 0 0 -70.08 13.19 0 0 38.84 2.55 -3.27 12.63 -14.83 15.84 0 -17.83 20.56 19.39 28.78 -15.15 0 -12.68 -19.79zm60.58 19.79c-0.61,-1.18 -1.04,-2.65 -1.32,-4.41 -3.19,3.57 -7.35,5.34 -12.46,5.34 -4.83,0 -8.85,-1.4 -12.02,-4.21 -3.18,-2.8 -4.77,-6.34 -4.77,-10.61 0,-5.23 1.95,-9.25 5.82,-12.05 3.88,-2.8 9.48,-4.22 16.8,-4.25l6.07 0 0 -2.8c0,-2.27 -0.59,-4.08 -1.76,-5.43 -1.17,-1.35 -3.02,-2.04 -5.54,-2.04 -2.21,0 -3.96,0.53 -5.22,1.57 -1.26,1.04 -1.9,2.49 -1.9,4.31l-13.18 0c0,-2.85 0.87,-5.5 2.63,-7.91 1.78,-2.43 4.27,-4.33 7.49,-5.71 3.22,-1.39 6.84,-2.07 10.85,-2.07 6.09,0 10.92,1.53 14.48,4.58 3.58,3.07 5.37,7.35 5.37,12.9l0 21.4c0.03,4.67 0.68,8.22 1.96,10.62l0 0.78 -13.33 0zm-10.9 -9.16c1.95,0 3.74,-0.44 5.39,-1.29 1.64,-0.87 2.85,-2.04 3.64,-3.49l0 -8.49 -4.92 0c-6.6,0 -10.12,2.27 -10.54,6.84l-0.05 0.78c0,1.64 0.58,2.99 1.73,4.07 1.15,1.06 2.74,1.59 4.75,1.59zm33.11 2.66c0,-2.09 0.7,-3.8 2.12,-5.09 1.42,-1.31 3.18,-1.96 5.31,-1.96 2.16,0 3.96,0.65 5.36,1.96 1.42,1.29 2.13,3.01 2.13,5.09 0,2.06 -0.7,3.74 -2.1,5.03 -1.4,1.29 -3.19,1.93 -5.39,1.93 -2.16,0 -3.94,-0.64 -5.34,-1.93 -1.39,-1.29 -2.09,-2.98 -2.09,-5.03zm44.37 -13.3l-4.75 4.75 0 15.04 -13.19 0 0 -70.08 13.19 0 0 38.84 2.55 -3.27 12.63 -14.83 15.84 0 -17.83 20.56 19.39 28.78 -15.15 0 -12.68 -19.79zm29.15 -5.23c0,-7.58 1.79,-13.69 5.4,-18.32 3.6,-4.63 8.46,-6.93 14.58,-6.93 5.42,0 9.62,1.87 12.63,5.59l0.56 -4.66 11.95 0 0 47.7c0,4.31 -0.98,8.07 -2.94,11.26 -1.96,3.19 -4.72,5.64 -8.29,7.3 -3.55,1.67 -7.72,2.51 -12.49,2.51 -3.63,0 -7.15,-0.72 -10.59,-2.16 -3.44,-1.45 -6.04,-3.3 -7.8,-5.58l5.84 -8.02c3.29,3.66 7.27,5.48 11.96,5.48 3.49,0 6.21,-0.93 8.16,-2.8 1.95,-1.87 2.93,-4.5 2.93,-7.94l0 -2.63c-3.05,3.44 -7.05,5.15 -12.01,5.15 -5.93,0 -10.73,-2.32 -14.39,-6.96 -3.68,-4.64 -5.5,-10.79 -5.5,-18.46l0 -0.54zm13.19 0.93c0,4.49 0.89,8 2.68,10.54 1.81,2.55 4.27,3.83 7.4,3.83 4.02,0 6.88,-1.51 8.63,-4.53l0 -20.84c-1.78,-3.02 -4.61,-4.53 -8.53,-4.53 -3.16,0 -5.65,1.29 -7.46,3.89 -1.81,2.6 -2.71,6.46 -2.71,11.63z"/>
  <path class="fil1" d="M11.91 9.5l10.51 0.13c9.22,0.12 16.6,3.79 21.95,8.92 6.65,6.38 10.16,15.05 10.16,21.95l-0.03 21.61c-0.01,7.87 -0.02,15.08 -0.02,25.8l0 1.63 -13.23 0c0.01,-6.62 0.85,-45.51 0.06,-48.22 0,-5.7 -3.04,-10.39 -6.83,-13.66 -3.82,-3.29 -8.31,-5.13 -11.24,-5.14l-19.98 0.01 0 45.81 6.4 0 0 -36.8 3.25 0 0 40.06 -12.91 0 0 -52.32 23.23 0c3.6,0.01 8.96,2.14 13.36,5.93 4.42,3.81 7.96,9.33 7.96,16.12l-0.07 44.96 6.74 0 0.05 -45.78c0,-6.12 -3.16,-13.86 -9.16,-19.61 -4.81,-4.61 -11.45,-7.91 -19.74,-8.02l-10.51 -0.13 0.04 -3.24z"/>
 </g>
</svg>
